<?xml version="1.0" standalone="no"?>
<!DOCTYPE svg PUBLIC "-//W3C//DTD SVG 20010904//EN"
 "http://www.w3.org/TR/2001/REC-SVG-20010904/DTD/svg10.dtd">
<svg version="1.0" xmlns="http://www.w3.org/2000/svg"
 width="3000.000000pt" height="3000.000000pt" viewBox="0 0 3000.000000 3000.000000"
 preserveAspectRatio="xMidYMid meet">
<metadata>
Created by potrace 1.14, written by Peter Selinger 2001-2017
</metadata>
<g transform="translate(0.000000,3000.000000) scale(0.100000,-0.100000)"
fill="#000000" stroke="none">
<path d="M26216 27723 c-1 -2 -5094 -3 -11317 -4 l-11314 -1 -160 -38 c-196
-46 -235 -60 -350 -118 -157 -80 -314 -191 -429 -307 -68 -68 -246 -307 -246
-330 0 -2 -11 -28 -24 -57 -44 -97 -80 -266 -92 -438 -3 -41 -7 -5086 -8
-11210 -2 -6124 -4 -11227 -6 -11340 -2 -182 4 -388 14 -475 2 -16 7 -57 11
-90 4 -32 8 -67 10 -76 2 -9 6 -34 9 -55 62 -387 321 -708 728 -903 59 -28
114 -51 121 -51 8 0 17 -3 20 -7 10 -10 102 -41 202 -69 50 -14 99 -28 110
-31 11 -3 61 -9 110 -13 50 -4 5240 -8 11535 -8 9148 0 11461 2 11526 13 248
38 519 166 799 378 72 54 80 64 197 237 126 186 213 401 228 560 10 109 10
23126 0 23240 -5 55 -20 122 -44 190 -20 58 -38 112 -40 121 -9 36 -99 203
-148 276 -185 274 -502 463 -973 580 -33 8 -69 17 -80 20 -21 5 -384 11 -389
6z m249 -1040 c205 -39 304 -118 363 -288 48 -142 62 -255 60 -495 -1 -80 -3
-5108 -4 -11175 -2 -6066 -6 -11055 -9 -11085 -5 -46 -18 -118 -29 -165 -16
-71 -64 -163 -112 -215 -54 -58 -166 -105 -294 -124 -19 -2 -56 -8 -81 -11
-83 -12 -151 -14 -424 -12 -398 3 -21414 2 -21725 -1 -146 -1 -278 -1 -295 2
-16 2 -58 7 -93 11 -143 14 -290 67 -368 130 -79 65 -133 198 -149 365 -3 36
-7 5091 -9 11235 -1 6144 -3 11209 -4 11257 0 47 1 97 3 110 2 12 6 41 9 63
11 93 60 185 142 268 80 82 129 108 248 133 10 2 21 6 24 9 3 3 5104 5 11336
4 10165 0 11339 -2 11411 -16z"/>
<path d="M13954 21702 c-18 -3 -23 -14 -34 -80 -16 -100 -19 -119 -30 -167 -5
-22 -12 -62 -16 -90 -3 -27 -8 -53 -10 -56 -2 -3 -6 -21 -9 -40 -14 -82 -25
-146 -30 -174 -3 -16 -21 -117 -40 -224 -20 -106 -40 -212 -45 -236 -5 -23
-11 -57 -14 -76 -2 -19 -25 -144 -50 -279 -25 -135 -47 -257 -50 -273 -6 -35
-25 -135 -31 -167 -3 -13 -7 -40 -10 -60 -3 -20 -8 -47 -10 -60 -3 -14 -8 -38
-10 -55 -3 -16 -15 -79 -26 -140 -12 -60 -23 -121 -25 -135 -3 -14 -18 -97
-34 -185 -16 -88 -32 -173 -35 -190 -3 -16 -7 -43 -10 -60 -3 -16 -19 -102
-35 -190 -16 -88 -32 -176 -35 -195 -3 -19 -17 -96 -31 -170 -14 -74 -28 -146
-30 -160 -13 -67 -34 -189 -38 -221 -3 -20 -8 -42 -10 -50 -3 -8 -7 -30 -10
-49 -3 -19 -8 -46 -11 -60 -3 -14 -9 -50 -15 -80 -5 -30 -12 -68 -15 -85 -3
-16 -17 -91 -30 -165 -14 -74 -27 -145 -29 -157 -3 -11 -8 -43 -12 -70 -5 -26
-9 -50 -9 -53 -1 -3 -5 -27 -10 -55 -5 -27 -10 -52 -10 -55 -1 -3 -5 -25 -9
-50 -5 -25 -10 -54 -12 -65 -17 -87 -44 -236 -49 -265 -3 -19 -8 -48 -11 -65
-3 -16 -7 -37 -9 -45 -2 -8 -7 -33 -10 -55 l-5 -40 662 2 c365 1 668 2 674 2
6 1 19 45 29 99 10 53 20 102 21 107 1 6 5 26 9 45 3 19 11 55 16 80 6 25 13
56 15 70 3 14 16 79 30 145 14 66 33 163 44 215 10 52 21 109 24 125 4 17 13
59 21 95 8 36 16 79 19 95 3 17 17 86 32 155 14 69 27 137 29 153 2 15 6 31 9
35 2 4 7 26 10 48 7 45 6 38 40 204 15 69 28 134 30 145 2 11 12 56 21 100 9
44 19 91 21 105 3 14 12 59 20 100 9 41 17 83 19 93 2 10 6 26 9 35 3 9 7 34
11 55 3 22 12 69 20 105 8 37 17 78 19 92 3 14 23 113 45 220 22 107 42 206
45 220 2 14 16 81 30 150 15 69 38 181 51 250 14 69 27 135 30 147 l5 22 1225
-1 c926 0 1225 -3 1225 -11 0 -7 -5 -30 -10 -52 -5 -22 -11 -56 -15 -75 -3
-19 -8 -46 -10 -60 -3 -14 -7 -36 -10 -50 -3 -14 -11 -59 -20 -100 -8 -41 -17
-86 -19 -100 -4 -21 -14 -73 -30 -155 -2 -11 -18 -90 -35 -175 -16 -85 -33
-171 -36 -190 -3 -19 -8 -42 -10 -50 -2 -8 -7 -28 -9 -45 -3 -16 -24 -124 -46
-240 -23 -115 -48 -244 -56 -285 -7 -41 -16 -84 -18 -95 -4 -21 -65 -336 -72
-370 -2 -11 -6 -31 -9 -45 -2 -14 -7 -38 -10 -55 -7 -43 -13 -74 -19 -93 -3
-9 -8 -37 -11 -62 -4 -24 -8 -48 -11 -51 -2 -4 -6 -24 -9 -45 -3 -22 -12 -73
-21 -114 -8 -41 -16 -86 -19 -100 -3 -14 -7 -36 -10 -50 -3 -14 -7 -36 -10
-50 -3 -14 -14 -72 -26 -130 -11 -58 -25 -127 -29 -155 -16 -86 -20 -109 -26
-135 -3 -14 -8 -36 -10 -50 -3 -14 -38 -196 -79 -405 -41 -209 -77 -396 -80
-415 -3 -19 -8 -42 -10 -50 -4 -16 -11 -51 -21 -109 -3 -18 -8 -43 -10 -55 -3
-11 -16 -77 -29 -146 -13 -69 -31 -161 -40 -204 -8 -44 -17 -91 -20 -105 -3
-14 -7 -37 -10 -51 -3 -14 -9 -50 -15 -80 -6 -30 -12 -64 -14 -75 -18 -93
-140 -715 -191 -980 -35 -181 -80 -413 -100 -515 -20 -102 -38 -196 -41 -210
-3 -14 -18 -92 -34 -175 -16 -82 -31 -161 -34 -175 -4 -24 -19 -100 -21 -110
-1 -3 -5 -23 -9 -45 -29 -149 -81 -418 -112 -575 -19 -102 -38 -196 -40 -210
-3 -14 -14 -70 -25 -125 -11 -55 -22 -116 -25 -135 -3 -19 -7 -37 -9 -40 -2
-3 -6 -24 -9 -46 -4 -22 -8 -49 -10 -59 -24 -118 -106 -540 -146 -750 -21
-106 -23 -120 -35 -175 -3 -14 -8 -41 -11 -60 -3 -19 -12 -66 -20 -105 -9 -38
-22 -104 -29 -145 -17 -91 -18 -97 -56 -290 -17 -85 -32 -162 -34 -171 -2 -9
-6 -32 -9 -50 -3 -19 -15 -79 -26 -134 -11 -55 -23 -116 -26 -135 -3 -19 -7
-41 -9 -47 -3 -10 -152 -13 -699 -13 -382 0 -697 -4 -700 -8 -3 -5 -8 -24 -11
-43 -3 -19 -8 -41 -10 -49 -2 -8 -6 -32 -9 -52 -3 -21 -10 -57 -15 -80 -5 -24
-12 -59 -15 -78 -3 -19 -13 -71 -21 -115 -9 -44 -18 -91 -21 -105 -3 -14 -23
-119 -45 -235 -22 -115 -42 -221 -45 -235 -2 -14 -7 -36 -10 -50 -2 -14 -6
-36 -9 -50 -2 -14 -10 -59 -19 -100 -21 -107 -64 -329 -71 -368 l-6 -33 913 5
c502 4 1298 9 1768 11 470 3 1126 7 1458 9 332 2 605 6 607 7 1 2 5 22 8 45 3
22 24 144 46 270 22 126 42 243 44 259 3 17 10 57 16 90 10 58 12 72 25 145 3
19 8 49 11 65 3 17 8 41 10 55 2 14 6 40 9 58 3 17 8 44 11 60 2 15 11 65 19
112 30 173 66 386 66 391 0 2 -348 4 -772 4 -504 0 -772 4 -771 10 1 6 4 30 8
55 4 24 8 47 10 50 2 3 10 44 19 90 19 104 23 125 41 220 8 41 16 86 19 100 2
14 21 111 41 215 20 105 39 201 41 215 3 14 18 93 34 175 16 83 32 164 34 180
3 17 21 111 40 210 46 234 44 228 61 315 13 69 69 362 80 420 2 14 8 39 11 55
4 17 8 39 10 50 4 26 13 72 21 110 3 17 7 37 8 45 1 8 16 87 33 175 17 88 52
268 77 400 26 132 52 272 60 310 8 39 17 85 20 104 3 18 32 171 65 340 32 168
61 317 63 331 3 14 8 43 12 65 4 22 9 49 12 60 2 11 10 56 19 100 8 44 21 112
29 150 8 39 17 86 20 105 3 19 8 42 10 50 2 8 6 31 9 50 3 19 8 44 10 55 5 23
43 217 50 255 2 14 12 66 21 115 10 50 19 101 22 115 2 14 13 70 24 125 37
187 80 410 85 445 3 19 7 43 10 52 3 9 6 25 8 35 2 10 12 59 21 108 10 50 19
97 20 105 3 19 12 67 37 195 11 55 22 111 24 125 12 65 24 127 29 150 3 14 10
52 16 85 6 33 17 92 24 130 8 39 16 82 19 96 2 14 13 73 25 130 11 57 23 118
26 134 3 17 12 64 20 105 7 41 21 113 29 159 9 46 18 91 20 100 3 9 8 32 11
51 6 39 68 365 90 475 8 39 16 81 18 95 3 14 8 43 12 65 4 22 9 49 11 60 2 11
10 54 19 95 16 77 85 439 105 545 6 33 13 71 16 85 3 14 12 63 20 110 9 47 18
94 20 105 2 11 38 196 80 410 66 343 86 447 109 570 3 17 10 53 16 82 l10 51
1250 0 1249 0 0 -21 c0 -12 -4 -38 -9 -57 -6 -19 -12 -48 -15 -65 -2 -16 -10
-55 -16 -85 -6 -30 -14 -68 -17 -85 -2 -16 -15 -82 -28 -145 -13 -63 -26 -128
-28 -145 -3 -16 -22 -113 -42 -215 -20 -102 -39 -194 -41 -205 -2 -11 -29
-148 -60 -305 -30 -157 -73 -374 -95 -484 -21 -109 -41 -210 -44 -225 -2 -14
-22 -116 -44 -226 -22 -110 -43 -216 -46 -235 -3 -19 -12 -64 -20 -100 -8 -36
-33 -162 -55 -280 -41 -213 -107 -550 -114 -581 -3 -15 56 -17 694 -18 l698
-1 6 27 c4 16 9 42 11 58 3 17 14 75 24 130 11 55 22 116 25 135 3 19 8 46 11
60 3 14 12 63 20 110 9 47 25 135 36 195 11 61 22 124 25 140 3 17 11 62 19
100 8 39 17 86 20 105 3 19 13 73 21 120 9 47 18 96 20 110 3 14 16 86 30 160
14 74 32 173 40 220 13 75 49 270 60 325 3 11 7 36 10 55 3 19 7 42 9 50 2 8
7 31 10 50 4 28 32 180 61 340 3 14 20 108 39 210 19 102 37 199 40 215 2 17
7 41 10 55 3 14 7 40 10 59 2 18 7 41 9 50 3 9 8 34 11 56 7 49 13 81 19 103
3 9 8 35 11 57 3 23 7 50 9 60 2 11 12 61 21 110 16 86 20 107 29 158 6 32 27
149 32 172 2 11 6 30 8 42 3 11 8 43 12 70 5 26 9 50 9 53 3 11 15 77 20 105
2 17 7 41 10 55 2 14 7 38 9 54 3 16 10 52 15 80 6 28 12 62 15 76 6 34 67
370 72 395 9 44 16 81 19 107 2 15 9 54 15 85 18 83 18 84 25 133 4 25 5 49 3
55 -3 9 -9383 16 -9444 7z"/>
<path d="M8696 21673 c-6 -30 -33 -193 -51 -305 -3 -18 -7 -44 -10 -58 -3 -14
-7 -38 -9 -55 -3 -16 -8 -46 -11 -65 -3 -19 -8 -46 -10 -60 -2 -14 -11 -65
-19 -115 -9 -49 -18 -108 -21 -130 -6 -41 -11 -70 -19 -115 -3 -14 -12 -68
-21 -120 -8 -52 -18 -107 -21 -122 l-6 -28 2201 0 c1460 0 2201 3 2202 10 1 6
2 13 3 18 1 4 5 29 10 55 4 27 9 58 12 70 2 12 6 37 9 57 3 20 7 45 9 57 3 11
7 38 11 59 7 49 13 84 25 154 5 30 12 69 14 85 3 17 12 73 21 125 9 52 18 107
21 123 4 27 9 59 19 120 3 17 8 46 11 62 12 75 25 152 30 178 l6 27 -2200 0
-2200 0 -6 -27z"/>
<path d="M7931 17508 c-33 -173 -41 -218 -66 -358 -8 -47 -17 -96 -20 -110 -3
-14 -7 -38 -10 -55 -3 -16 -10 -52 -15 -80 -5 -27 -12 -66 -15 -85 -4 -19 -10
-53 -15 -75 -5 -22 -11 -58 -15 -80 -8 -58 -13 -83 -35 -196 -11 -55 -20 -102
-20 -105 0 -7 4360 -4 4361 4 0 4 2 16 4 27 2 11 9 54 15 95 6 41 18 111 25
155 8 44 16 98 20 120 3 22 12 83 21 135 8 52 17 111 20 130 3 19 14 87 24
150 23 139 30 184 36 230 2 19 9 59 14 89 6 30 10 56 10 58 0 2 -974 3 -2164
3 l-2165 0 -10 -52z"/>
<path d="M7172 13373 c-6 -27 -20 -100 -31 -163 -11 -63 -23 -128 -26 -145 -3
-16 -8 -46 -11 -65 -3 -19 -7 -43 -10 -52 -3 -10 -7 -30 -10 -45 -8 -50 -44
-248 -49 -273 -3 -14 -14 -74 -25 -135 -11 -60 -22 -121 -25 -135 -6 -32 -25
-133 -25 -137 0 -2 1822 -3 4049 -3 l4049 0 6 28 c3 15 13 74 21 132 9 58 17
112 20 120 2 8 6 35 9 60 3 25 8 56 11 70 2 13 7 42 10 65 3 22 8 47 10 55 2
8 6 38 10 65 3 28 10 75 15 105 5 30 12 71 15 90 3 19 7 46 10 60 7 38 13 75
30 190 8 58 18 117 21 133 l6 27 -4035 0 -4035 0 -10 -47z"/>
<path d="M6396 9288 c-3 -13 -10 -54 -16 -93 -6 -38 -13 -81 -15 -95 -2 -14
-9 -54 -14 -90 -6 -36 -13 -76 -16 -90 -3 -14 -8 -41 -10 -60 -5 -34 -18 -110
-20 -120 0 -3 -4 -27 -9 -53 -4 -27 -9 -59 -12 -70 -2 -12 -9 -51 -15 -87 -5
-36 -12 -78 -15 -95 -3 -16 -7 -43 -10 -60 -2 -16 -6 -41 -9 -55 -3 -14 -7
-41 -10 -60 -3 -19 -7 -46 -10 -60 -3 -14 -7 -40 -10 -57 l-5 -33 3349 0 3349
0 5 23 c3 12 13 67 22 122 9 55 18 111 20 125 2 14 13 81 25 150 11 69 22 136
25 150 2 13 7 42 11 64 3 22 7 43 9 46 1 3 6 32 10 65 3 32 8 62 10 65 2 3 6
30 10 60 3 29 8 56 10 60 2 3 7 29 10 56 7 54 12 86 20 124 3 14 8 40 11 58
l6 32 -3351 0 -3351 0 -4 -22z"/>
</g>
</svg>
